#!OML:ASF F:\VICON\USERDATA\INSTALL\rory3\rory3.ASF
:FULLY-SPECIFIED
:DEGREES
4720
root 1.8096 16.3569 -3.26343 4.19354 -63.3405 0.776434
lowerback 11.6582 2.34229 -1.33353
upperback 2.27866 3.01907 3.09563
thorax -4.38358 1.49599 3.53078
lowerneck -22.1656 5.30568 -6.18836
upperneck 21.2481 9.2249 0.828811
head 10.1102 3.80232 2.64758
rclavicle -2.42517e-014 1.43125e-014
rhumerus -28.8187 15.0445 -87.0903
rradius 120.185
rwrist -12.9692
rhand -12.1448 24.3133
rfingers 7.12502
rthumb 13.9174 -5.2009
lclavicle -2.42517e-014 1.43125e-014
lhumerus -16.9498 -3.35675 86.3051
lradius 130.922
lwrist -3.1836
lhand -9.61664 6.66755
lfingers 7.12502
lthumb 16.3528 35.9981
rfemur -4.80072 -3.71669 7.63
rtibia 49.004
rfoot -28.1594 4.8505
rtoes -25.1712
lfemur -40.1922 1.52307 -8.69079
ltibia 51.2736
lfoot -9.39226 -3.99189
ltoes -26.1191
4721
root 1.84242 16.4025 -3.31852 3.95736 -63.5009 1.11213
lowerback 11.646 2.29089 -1.42324
upperback 2.2616 2.94262 3.14208
thorax -4.39608 1.46011 3.64286
lowerneck -22.0002 5.43615 -6.10045
upperneck 21.3723 9.40506 0.681721
head 10.131 3.8686 2.60546
rclavicle -3.08116e-014 -1.82882e-014
rhumerus -28.7808 15.0689 -87.4246
rradius 121.458
rwrist -13.3829
rhand -12.6734 24.5047
rfingers 7.12502
rthumb 13.408 -5.04383
lclavicle -3.08116e-014 -1.82882e-014
lhumerus -17.4046 -3.49791 86.65
lradius 130.934
lwrist -2.78355
lhand -9.81933 6.88146
lfingers 7.12502
lthumb 16.1576 36.228
rfemur -5.07071 -3.72711 7.49462
rtibia 48.7734
rfoot -27.6344 5.126
rtoes -25.2201
lfemur -39.8312 1.40587 -8.71825
ltibia 50.2778
lfoot -8.80472 -3.66384
ltoes -26.4402
4722
root 1.87733 16.4533 -3.3757 3.8161 -63.591 1.33072
lowerback 11.6198 2.24883 -1.38501
upperback 2.29445 2.89116 3.1785
thorax -4.34327 1.43289 3.669
lowerneck -21.868 5.51854 -6.054
upperneck 21.4058 9.52712 0.551949
head 10.1248 3.91125 2.56593
rclavicle -5.725e-014 -5.56597e-015
rhumerus -28.5773 14.9825 -87.7811
rradius 122.65
rwrist -13.6457
rhand -13.0302 24.7915
rfingers 7.12502
rthumb 13.0641 -4.77931
lclavicle -5.725e-014 -5.56597e-015
lhumerus -17.7817 -3.79785 87.0113
lradius 130.978
lwrist -2.50511
lhand -10.1699 7.10989
lfingers 7.12502
lthumb 15.8201 36.4835
rfemur -5.29165 -3.76132 7.38365
rtibia 48.4727
rfoot -26.912 5.87749
rtoes -23.5456
lfemur -39.4982 1.16357 -8.64118
ltibia 49.2134
lfoot -8.03018 -3.38789
ltoes -26.6689
4723
root 1.91283 16.5095 -3.43608 3.80841 -63.6509 1.38893
lowerback 11.5702 2.20884 -1.23358
upperback 2.37473 2.85359 3.21827
thorax -4.22361 1.40927 3.63356
lowerneck -21.7371 5.58688 -6.11721
upperneck 21.3445 9.63078 0.543948
head 10.0722 3.9575 2.57955
rclavicle -2.3059e-014 2.38542e-015
rhumerus -28.2109 14.9581 -88.0787
rradius 123.753
rwrist -13.6963
rhand -13.487 24.7933
rfingers 7.12502
rthumb 12.6237 -4.8052
lclavicle -2.3059e-014 2.38542e-015
lhumerus -18.0643 -4.07633 87.3127
lradius 130.983
lwrist -2.44917
lhand -10.4627 7.18717
lfingers 7.12502
lthumb 15.538 36.5829
rfemur -5.48029 -3.56261 7.43513
rtibia 48.1465
rfoot -26.2264 6.42902
rtoes -21.3146
lfemur -39.1529 0.886177 -8.44908
ltibia 48.0411
lfoot -7.06555 -3.18772
ltoes -26.863
4724
root 1.94862 16.5759 -3.4991 3.59276 -63.6473 1.69436
lowerback 11.5374 2.18457 -1.24451
upperback 2.42997 2.81894 3.25771
thorax -4.14758 1.39043 3.68844
lowerneck -21.6573 5.6453 -6.11325
upperneck 21.4129 9.72594 0.467945
head 10.0838 3.98915 2.56476
rclavicle 9.14409e-015 4.77083e-015
rhumerus -27.8739 14.943 -88.2656
rradius 124.84
rwrist -13.6118
rhand -13.8623 24.6885
rfingers 7.12502
rthumb 12.2619 -4.932
lclavicle 9.14409e-015 4.77083e-015
lhumerus -18.3998 -4.36172 87.698
lradius 131.012
lwrist -2.47264
lhand -10.3891 6.86563
lfingers 7.12502
lthumb 15.6089 36.2559
rfemur -5.6462 -3.09279 7.3624
rtibia 47.819
rfoot -25.3627 7.76841
rtoes -15.3274
lfemur -38.7574 0.540112 -8.32896
ltibia 46.7464
lfoot -5.924 -3.13966
ltoes -26.4883
4725
root 1.98469 16.6522 -3.56621 3.42492 -63.7279 1.99349
lowerback 11.498 2.2109 -1.30573
upperback 2.4452 2.84681 3.27834
thorax -4.11606 1.40449 3.74188
lowerneck -21.577 5.70711 -5.96935
upperneck 21.5312 9.80684 0.296158
head 10.1272 4.01052 2.49523
rclavicle 8.11041e-014 6.36111e-015
rhumerus -27.6906 14.9272 -88.5418
rradius 125.951
rwrist -13.256
rhand -14.0805 24.543
rfingers 7.12502
rthumb 12.0514 -5.08997
lclavicle 8.11041e-014 6.36111e-015
lhumerus -18.8367 -4.72949 88.1108
lradius 131.084
lwrist -2.50503
lhand -10.3297 6.5901
lfingers 7.12502
lthumb 15.6661 35.9759
rfemur -5.88047 -2.35231 7.22821
rtibia 47.4927
rfoot -24.1562 9.76126
rtoes -5.72231
lfemur -38.3335 0.278149 -8.18193
ltibia 45.361
lfoot -4.66095 -3.10527
ltoes -26.3816
4726
root 2.02166 16.7282 -3.63523 3.14441 -63.8062 2.42283
lowerback 11.5035 2.22786 -1.41929
upperback 2.45498 2.85455 3.24776
thorax -4.11336 1.4095 3.77288
lowerneck -21.5506 5.77293 -5.8272
upperneck 21.607 9.88416 0.174108
head 10.1621 4.03824 2.44335
rclavicle -2.14687e-014 3.18055e-015
rhumerus -27.549 15.0623 -88.9329
rradius 126.933
rwrist -12.6298
rhand -14.5448 24.5557
rfingers 7.12502
rthumb 11.6038 -5.10298
lclavicle -2.14687e-014 3.18055e-015
lhumerus -19.2955 -5.12674 88.3996
lradius 131.147
lwrist -2.59205
lhand -10.5395 6.66336
lfingers 7.12502
lthumb 15.4641 36.0648
rfemur -6.14504 -1.99413 7.1166
rtibia 47.1321
rfoot -23.2852 10.3508
rtoes -2.00822
lfemur -37.9311 0.0151836 -8.10866
ltibia 43.9435
lfoot -3.33249 -3.01809
ltoes -26.5572
